<?xml version="1.0" encoding="UTF-8"?>
<svg version="1.1" xmlns="http://www.w3.org/2000/svg" width="2781" height="2781">
<path d="M0 0 C10.92861531 10.0859269 16.7039582 23.48427325 17.40625 38.21484375 C17.26222387 53.06753849 11.86626613 65.84204655 1.46484375 76.37109375 C-3.41017378 80.8778197 -9.72442748 86.4375 -16.625 86.4375 C-16.625 104.5875 -16.625 122.7375 -16.625 141.4375 C-9.365 141.7675 -2.105 142.0975 5.375 142.4375 C11.96722074 142.9468039 18.54546452 143.48703849 25.125 144.125 C26.45112808 144.25229996 26.45112808 144.25229996 27.80404663 144.38217163 C87.01605753 150.12821335 145.62583994 161.50965691 202.375 179.4375 C203.09220215 179.66352905 203.8094043 179.88955811 204.54833984 180.12243652 C238.58034879 190.87563218 271.5989173 203.66651225 303.91308594 218.81738281 C306.89646398 220.21355324 309.88681424 221.59214432 312.8828125 222.9609375 C324.12953904 228.13579771 334.96875082 233.98242966 345.78369141 240.00146484 C348.13330498 241.30355897 350.49145694 242.5875749 352.85546875 243.86328125 C385.79414827 261.7239995 417.20745565 282.91944216 446.375 306.4375 C447.31601563 307.19546875 448.25703125 307.9534375 449.2265625 308.734375 C451.9563472 310.95281674 454.66961986 313.18936721 457.375 315.4375 C457.88385742 315.85999023 458.39271484 316.28248047 458.91699219 316.71777344 C466.36286967 322.91437299 473.59072845 329.29668689 480.68579102 335.8918457 C481.94645127 337.04537079 483.21990934 338.18493847 484.49975586 339.31713867 C491.18857982 345.2456999 497.54754463 351.45611427 503.85327148 357.78540039 C505.56707233 359.5045867 507.28619082 361.21832583 509.00585938 362.93164062 C514.6764468 368.59844084 520.19597456 374.31188976 525.375 380.4375 C526.39642337 381.60593045 527.41985148 382.77261154 528.4453125 383.9375 C541.22438159 398.55014175 553.22402916 413.54200551 564.375 429.4375 C564.91125 430.19933594 565.4475 430.96117187 566 431.74609375 C579.43408385 450.89612192 591.52783895 470.71186451 602.375 491.4375 C602.87918457 492.40059082 603.38336914 493.36368164 603.90283203 494.35595703 C612.85599208 511.58318945 620.65192208 529.22289912 627.375 547.4375 C628.57769531 547.13005859 628.57769531 547.13005859 629.8046875 546.81640625 C657.37245658 540.28390768 684.91256309 543.91878745 709.375 558.4375 C722.64437563 566.74723107 733.86339308 576.98977782 743.375 589.4375 C744.37466797 590.71367188 744.37466797 590.71367188 745.39453125 592.015625 C765.92879159 619.07062679 778.38419643 655.28702966 778.578125 689.265625 C778.58864647 690.49974121 778.58864647 690.49974121 778.59938049 691.75878906 C778.61680527 694.40174887 778.62323336 697.04448485 778.625 699.6875 C778.62601212 701.0397467 778.62601212 701.0397467 778.62704468 702.41931152 C778.61165091 715.33568884 778.26004749 727.79837953 775.375 740.4375 C775.12556641 741.62351807 775.12556641 741.62351807 774.87109375 742.83349609 C766.71865195 781.33868647 746.3074034 819.7334387 713.0078125 842.12109375 C688.47613956 858.01830698 661.1781298 863.95642137 632.375 858.4375 C631.385 858.1075 630.395 857.7775 629.375 857.4375 C629.15585938 858.6440625 628.93671875 859.850625 628.7109375 861.09375 C627.24135976 867.66966158 624.60571222 873.74331684 622 879.9375 C621.73589325 880.56899963 621.4717865 881.20049927 621.19967651 881.85113525 C612.28663803 903.13151098 602.09225855 923.55848826 590.375 943.4375 C589.9020752 944.24268066 589.42915039 945.04786133 588.94189453 945.87744141 C574.19787868 970.84858078 557.06727781 994.29169637 538.375 1016.4375 C537.38007346 1017.62879362 536.38527642 1018.82019541 535.390625 1020.01171875 C524.06288695 1033.49411685 511.79802483 1046.09366997 499.375 1058.5625 C498.50302979 1059.43914307 497.63105957 1060.31578613 496.73266602 1061.21899414 C492.326104 1065.61456617 487.85667457 1069.86646517 483.13525391 1073.92236328 C480.72562283 1075.99645073 478.3976807 1078.15527242 476.0625 1080.3125 C470.66008543 1085.2332178 465.07331141 1089.86542553 459.375 1094.4375 C458.25479484 1095.34975289 457.13502295 1096.26253803 456.015625 1097.17578125 C421.56909373 1125.15800509 384.24328478 1149.06446513 345.1328125 1169.96240234 C343.31006379 1170.93735345 341.4896971 1171.91677254 339.671875 1172.90087891 C304.78096555 1191.77701218 267.87766179 1206.62907304 230.375 1219.4375 C229.19486328 1219.84178223 228.01472656 1220.24606445 226.79882812 1220.66259766 C166.03122246 1241.30296775 102.49325165 1254.45746417 38.59020996 1260.23175049 C36.37673584 1260.43733877 34.16550163 1260.65949044 31.95410156 1260.88623047 C-20.64365628 1266.21281621 -75.77400397 1265.93942329 -128.36108398 1260.66210938 C-130.63377449 1260.43662946 -132.90735469 1260.22435115 -135.18164062 1260.015625 C-194.65377831 1254.5102363 -253.70095564 1242.47651782 -310.625 1224.4375 C-311.27128357 1224.23338501 -311.91756714 1224.02927002 -312.58343506 1223.81896973 C-345.42526964 1213.42868732 -377.42923629 1201.05701237 -408.625 1186.4375 C-409.2274353 1186.15583984 -409.82987061 1185.87417969 -410.45056152 1185.58398438 C-436.72062808 1173.29259671 -461.92916146 1159.55107896 -486.59375 1144.30859375 C-489.13976018 1142.73702303 -491.69221344 1141.17727989 -494.25 1139.625 C-516.91025777 1125.79506881 -538.45572261 1109.79353684 -558.88818359 1092.87011719 C-561.38734405 1090.80867868 -563.91545371 1088.78333293 -566.4375 1086.75 C-571.04273356 1082.98145302 -575.45373534 1079.02961696 -579.82421875 1074.9921875 C-582.0179497 1072.99121115 -584.2322238 1071.02967682 -586.47265625 1069.08203125 C-590.51839725 1065.55265644 -594.46268452 1061.92626516 -598.375 1058.25 C-599.06456787 1057.60216553 -599.75413574 1056.95433105 -600.46459961 1056.28686523 C-608.51702346 1048.69106535 -616.54728885 1041.05721164 -623.7265625 1032.6171875 C-625.74466071 1030.30011178 -627.82790606 1028.05588603 -629.92553711 1025.81103516 C-634.89063415 1020.49409297 -639.67641039 1015.1000883 -644.23046875 1009.421875 C-646.00740685 1007.20722458 -647.79995802 1005.01257619 -649.61328125 1002.828125 C-685.40429934 959.56796067 -713.64761415 909.83102137 -733.625 857.4375 C-734.17736328 857.52837891 -734.72972656 857.61925781 -735.29882812 857.71289062 C-766.2448132 862.71244911 -794.25909527 860.37544503 -820.74609375 842.30859375 C-856.44196572 816.16193594 -875.65793862 777.92314442 -883.22924805 735.01293945 C-884.80703013 724.58552173 -884.98364155 714.27705936 -884.9375 703.75 C-884.93534485 702.8649881 -884.9331897 701.9799762 -884.93096924 701.06814575 C-884.88104622 688.29925055 -884.54901568 675.91907994 -881.625 663.4375 C-881.42632324 662.54434082 -881.22764648 661.65118164 -881.02294922 660.73095703 C-872.3618183 622.42086109 -852.6843086 583.80410631 -818.875 561.8125 C-794.56738937 546.54001343 -767.99027343 539.91445979 -739.5 545.5 C-738.22125 545.809375 -736.9425 546.11875 -735.625 546.4375 C-735.52960938 545.80457031 -735.43421875 545.17164063 -735.3359375 544.51953125 C-731.49224426 527.85648747 -722.94041578 511.78388459 -715.625 496.4375 C-715.01035889 495.14030029 -715.01035889 495.14030029 -714.38330078 493.81689453 C-696.64910635 456.61213841 -673.04781054 421.99327311 -646.625 390.4375 C-645.86340576 389.52726074 -645.86340576 389.52726074 -645.08642578 388.59863281 C-636.21130835 378.03288106 -627.05494623 367.68912407 -617.1875 358.03515625 C-615.47053159 356.27955605 -613.8977348 354.43762728 -612.3125 352.5625 C-608.89348389 348.59276989 -605.09987848 345.18830212 -601.171875 341.73046875 C-598.69301377 339.49873326 -596.3399283 337.18873754 -594 334.8125 C-590.03507135 330.80619819 -585.91130149 327.09409443 -581.625 323.4375 C-580.58406143 322.53321238 -579.54374817 321.62820469 -578.50390625 320.72265625 C-571.04644812 314.24856422 -563.44893655 308.00772935 -555.62304688 301.98486328 C-553.48149815 300.32636672 -551.35826958 298.64587786 -549.234375 296.96484375 C-527.90745984 280.2414689 -505.03691086 265.08504886 -481.625 251.4375 C-480.83367676 250.97263184 -480.04235352 250.50776367 -479.22705078 250.02880859 C-465.59424967 242.04024442 -451.69096155 234.63129588 -437.625 227.4375 C-436.91601562 227.07205078 -436.20703125 226.70660156 -435.4765625 226.33007812 C-430.89004467 223.96774515 -426.27166269 221.67913616 -421.625 219.4375 C-420.31595703 218.80473145 -420.31595703 218.80473145 -418.98046875 218.15917969 C-345.77562039 183.0178807 -266.42845868 160.67437918 -50.625 140.4375 C-50.625 122.6175 -50.625 104.7975 -50.625 86.4375 C-53.1 85.9425 -53.1 85.9425 -55.625 85.4375 C-68.289188 79.56668437 -76.4988645 69.7447483 -81.62109375 56.94921875 C-86.20561413 43.89759376 -85.79965625 30.26940071 -80.37109375 17.484375 C-73.41383046 3.91107659 -63.11185846 -4.32994067 -49.01171875 -9.8359375 C-31.88695341 -15.04904119 -13.97795294 -10.66823075 0 0 Z " fill="#E5EEF9" transform="translate(1443.625,620.5625)"/>
<path d="M0 0 C0.93661909 0.00146152 1.87323818 0.00292305 2.83823967 0.00442886 C28.36834325 0.04686267 53.89482692 0.47053283 79.4209587 0.89085889 C84.3068318 0.97128299 89.19272975 1.05003504 94.0786438 1.12792969 C134.495716 1.77301739 174.91005157 2.52038792 215.32348633 3.36450195 C219.30419624 3.44757215 223.28490899 3.53050395 227.265625 3.61328125 C228.74527835 3.64405353 228.74527835 3.64405353 230.25482368 3.67544746 C256.93063878 4.22856379 283.60779751 4.70785122 310.28515625 5.1796875 C311.49734455 5.20116852 312.70953285 5.22264954 313.95845413 5.24478149 C343.80580999 5.77320802 373.65302592 6.25692874 403.50252914 6.64434433 C420.98750936 6.87204994 438.47043026 7.15072328 455.953125 7.515625 C456.83986593 7.53408667 457.72660686 7.55254833 458.64021873 7.57156944 C467.24506081 7.7510455 475.84985792 7.9325788 484.45455933 8.11868286 C513.60797852 8.74754555 542.76176594 9.24771008 571.91875869 9.67325664 C579.11409688 9.77833162 586.30939926 9.88562153 593.50468445 9.9942627 C595.04173095 10.01743856 595.04173095 10.01743856 596.60982889 10.04108262 C600.76846761 10.10379215 604.92710609 10.16651658 609.0857414 10.22945166 C621.54618016 10.41784056 634.00667814 10.59759989 646.46743226 10.76386338 C654.40645247 10.8704812 662.34529208 10.98697748 670.28406596 11.11056823 C674.93237231 11.18255134 679.58063116 11.24996359 684.22916794 11.30529976 C720.74919331 11.74534052 720.74919331 11.74534052 737.03515625 15.1171875 C737.74493559 15.26132521 738.45471493 15.40546291 739.18600273 15.55396843 C767.00477958 21.25379626 793.26383326 36.03898137 813.56738281 55.70507812 C815.03611123 57.11810627 816.52940883 58.50085302 818.02734375 59.8828125 C838.42769458 79.0511941 851.94852915 105.40610501 858.84765625 132.3046875 C859.04270752 133.06313965 859.23775879 133.8215918 859.4387207 134.60302734 C862.72105508 148.28545339 863.36597227 161.75708464 863.28515625 175.7421875 C863.28271912 176.69443207 863.28028198 177.64667664 863.277771 178.6277771 C863.21002792 202.23007939 862.56266005 225.82585668 861.95534229 249.41915035 C861.40127283 270.98323832 860.94060778 292.54586485 860.62001038 314.11480904 C860.56260115 317.96197148 860.50353352 321.80910509 860.44396973 325.65623474 C860.40450295 328.21572817 860.36507419 330.77522219 860.32568359 333.3347168 C860.30622807 334.59879584 860.28677254 335.86287489 860.26672745 337.16525936 C860.15256357 344.67267862 860.05031421 352.18015077 859.95626354 359.68784714 C859.89421991 364.41926252 859.82110587 369.15046508 859.74539375 373.88167953 C859.71272029 376.07155681 859.68465601 378.26150914 859.66184807 380.45151138 C859.46205411 399.3379197 858.33320685 418.24042127 852.41015625 436.3046875 C852.06388184 437.38854736 851.71760742 438.47240723 851.36083984 439.58911133 C844.57235613 460.17477055 834.21267358 477.76811382 820.03515625 494.1171875 C819.28234375 494.99246094 818.52953125 495.86773438 817.75390625 496.76953125 C813.16510483 501.99479314 808.43748031 506.74121171 803.03515625 511.1171875 C802.11347656 511.87644531 801.19179687 512.63570312 800.2421875 513.41796875 C778.70319997 530.80127124 754.11475452 540.97262917 727.03515625 546.1171875 C726.17950577 546.28179977 725.32385529 546.44641205 724.442276 546.61601257 C717.46785304 547.87864583 710.8056659 548.40049671 703.7265625 548.34765625 C702.68032211 548.34719803 701.63408173 548.34673981 700.55613708 548.3462677 C698.34852967 548.34326644 696.14092397 548.33544465 693.93334961 548.32299805 C690.66446836 548.30505425 687.39587794 548.30248701 684.12695312 548.30273438 C671.44747279 548.28135014 658.79652917 547.97137727 646.12651062 547.49514771 C633.62873284 547.03756198 621.13194591 546.87332309 608.6272583 546.72930908 C600.90370012 546.63965748 593.18035266 546.53371323 585.45703125 546.42578125 C584.62945438 546.41423508 583.80187752 546.4026889 582.94922256 546.39079285 C570.27368686 546.21187767 557.59974597 545.98220368 544.92578125 545.71484375 C544.05401371 545.69647776 543.18224617 545.67811176 542.28406143 545.65918922 C537.67676893 545.56190811 533.06949184 545.46391105 528.46221924 545.36569214 C478.01304417 544.29104929 427.5607056 543.47217937 377.10666656 542.66626263 C273.49971682 541.01088021 273.49971682 541.01088021 226.33428955 540.00344849 C220.80230908 539.88534543 215.27030798 539.76825998 209.73828125 539.65234375 C208.78813015 539.63243441 207.83797905 539.61252506 206.85903549 539.59201241 C184.83009505 539.13358382 162.79982854 538.74959773 140.76953125 538.36328125 C139.82470556 538.34669983 138.87987987 538.33011842 137.90642309 538.31303453 C119.63780033 537.99247451 101.36914161 537.67398991 83.10040283 537.36010742 C79.41280088 537.29672528 75.72519918 537.23332896 72.03759766 537.16992188 C70.68924989 537.14674861 70.68924989 537.14674861 69.31366277 537.12310719 C54.87285493 536.87469279 40.43224118 536.61656574 25.99175072 536.35034752 C18.17572137 536.20676641 10.35972308 536.07307393 2.54321098 535.95785809 C-1.29915339 535.89928003 -5.14127929 535.83062278 -8.98340988 535.75844002 C-10.59794001 535.73033978 -12.21255651 535.70667833 -13.82722855 535.68847466 C-27.82835065 535.52853706 -41.50335018 533.59221305 -54.90234375 529.4296875 C-55.72951904 529.17550049 -56.55669434 528.92131348 -57.40893555 528.65942383 C-98.27873816 515.65628027 -131.66593379 486.48580316 -151.39111328 448.61376953 C-158.63911056 434.10903191 -163.61998681 419.14573013 -165.96484375 403.1171875 C-166.13185791 402.35760742 -166.29887207 401.59802734 -166.47094727 400.81542969 C-168.50955753 390.88812737 -168.22996426 380.90071647 -168.1706543 370.81494141 C-168.152703 367.67992712 -168.15014334 364.54521602 -168.15039062 361.41015625 C-168.12896981 349.22397906 -167.81705207 337.06760088 -167.34280396 324.89122009 C-166.87581563 312.54758422 -166.7192759 300.20461001 -166.57696533 287.85366821 C-166.48944642 280.35278837 -166.38041285 272.8521853 -166.2734375 265.3515625 C-166.25611824 264.13518569 -166.25611824 264.13518569 -166.2384491 262.89423561 C-166.14905037 256.63519277 -166.05748097 250.3761832 -165.96484375 244.1171875 C-165.94987099 243.10347076 -165.93489822 242.08975403 -165.91947174 241.0453186 C-165.71965847 227.57506245 -165.50588538 214.10513179 -165.26718998 200.63550472 C-165.16748227 194.99822635 -165.07229141 189.36096308 -164.98880005 183.72341919 C-164.90917537 178.35999118 -164.81644398 172.99693619 -164.71446037 167.63388824 C-164.67899176 165.65588274 -164.64796881 163.67779114 -164.62198067 161.69963837 C-164.11109546 123.66099325 -153.56861566 86.18919943 -127.96484375 57.1171875 C-127.23523438 56.27929688 -126.505625 55.44140625 -125.75390625 54.578125 C-123.52368591 52.05866107 -121.25699737 49.5803366 -118.96484375 47.1171875 C-118.35253906 46.45074219 -117.74023438 45.78429688 -117.109375 45.09765625 C-86.19756397 12.73582423 -43.56501198 -0.13656734 0 0 Z " fill="#0C1C2F" transform="translate(1042.96484375,1048.8828125)"/>
<path d="M0 0 C1.37083779 0.02129228 2.74168395 0.04205085 4.11253721 0.06232327 C7.78589969 0.11816479 11.4590973 0.18148804 15.13231061 0.24632224 C19.04422864 0.31406691 22.9562564 0.37481145 26.86827421 0.43647051 C34.12098394 0.55188192 41.37357231 0.67356137 48.6261254 0.7984005 C53.72799648 0.88619824 58.82989239 0.97224172 63.93182564 1.0563488 C80.52701043 1.33016902 97.12193868 1.6173727 113.71676808 1.91179349 C121.15732001 2.04375874 128.59789705 2.17428633 136.03847398 2.30483289 C151.42795809 2.57489296 166.81741505 2.84647695 182.20686305 3.11858666 C194.09129887 3.32871233 205.97574248 3.53839289 217.86019135 3.74777985 C219.58604416 3.77818859 221.31189698 3.80859744 223.0377498 3.83900639 C225.6401733 3.88485976 228.24259681 3.93071285 230.84502034 3.97656493 C254.91560233 4.40067414 278.98617615 4.82524393 303.05673218 5.25082397 C303.95717471 5.2667442 304.85761723 5.28266443 305.7853459 5.29906709 C313.0914815 5.42824558 320.39761687 5.55743654 327.70375223 5.68662851 C356.26689602 6.19169044 384.83006598 6.69524856 413.39325714 7.19762421 C445.67988987 7.76549158 477.96650287 8.33446366 510.25308752 8.90505838 C513.70206796 8.96600806 517.15104846 9.02695421 520.60002899 9.08789825 C521.87335747 9.11039935 521.87335747 9.11039935 523.17240975 9.13335502 C535.89286881 9.35811779 548.61334249 9.58203969 561.33382416 9.8055191 C575.79780879 10.05963087 590.26177211 10.31492098 604.72570932 10.57171857 C612.08260701 10.70230511 619.43951263 10.832391 626.79644585 10.9609623 C677.48907426 11.84752667 677.48907426 11.84752667 698.18493611 12.35067791 C699.75498825 12.38851732 701.32507577 12.42492588 702.89519972 12.45965868 C751.02906883 13.53981101 794.39078635 30.91945945 829.58905792 63.91783905 C830.08276886 64.37755096 830.5764798 64.83726288 831.08515167 65.31090546 C845.8688472 79.18674936 857.09627388 95.04883535 866.58905792 112.91783905 C866.9263089 113.54835175 867.26355988 114.17886444 867.61103058 114.82848358 C877.25358017 133.19212762 882.74773141 153.46185687 885.58905792 173.91783905 C885.84291763 175.68786285 885.84291763 175.68786285 886.10190582 177.49364471 C886.67002835 182.08897813 886.74046673 186.62599168 886.73725128 191.25182343 C886.73983759 192.17900177 886.7424239 193.10618011 886.74508858 194.06145477 C886.75059141 197.21153537 886.74679894 200.361509 886.74140167 203.51158905 C886.74070112 204.63483078 886.74000057 205.75807251 886.73927879 206.91535187 C886.70184624 242.21772925 885.96203288 277.51538684 885.30945432 312.81050491 C885.16745867 320.50747986 885.03072572 328.20454117 884.89538437 335.90163565 C884.73017266 345.29418918 884.56122784 354.68667307 884.39126086 364.07914162 C884.34379353 366.71552547 884.29699817 369.35192048 884.25037575 371.9883194 C883.95941345 388.37408844 883.64442239 404.75832498 883.12006378 421.13854218 C883.08577302 422.28643974 883.05148226 423.43433731 883.01615238 424.61701965 C882.67310855 434.53585023 881.59280553 444.19810583 879.58905792 453.91783905 C879.43485382 454.67081268 879.28064972 455.42378632 879.12177277 456.19957733 C872.33291104 487.8696511 856.79877099 517.40931236 834.58905792 540.91783905 C833.45943559 542.24725853 832.3342648 543.58047623 831.21405792 544.91783905 C802.67529064 577.43118351 757.17907401 597.33709464 714.58905792 600.91783905 C710.93823561 601.05447308 707.29175497 601.05925297 703.63866997 601.05254841 C702.57392099 601.05408163 701.50917201 601.05561484 700.41215791 601.05719452 C696.87086328 601.05970424 693.32965528 601.05361926 689.78836823 601.04621124 C688.54307352 601.04492489 687.29777881 601.04363853 686.0147479 601.0423132 C656.16029105 601.00558642 626.31362931 600.5190427 596.46459711 599.9886637 C588.32570292 599.84424529 580.1867094 599.70578218 572.04771306 599.56726264 C554.28438941 599.26470112 536.52120506 598.95442171 518.75805068 598.64210289 C517.84550482 598.62605887 516.93295895 598.61001485 515.99276018 598.59348464 C515.07802993 598.57740145 514.16329967 598.56131827 513.22085032 598.54474771 C502.98231259 598.3648289 492.74374501 598.18663006 482.50517654 598.00847054 C451.50238559 597.46881362 420.49962344 596.92756984 389.49698067 596.37945843 C388.01895178 596.35333043 388.01895178 596.35333043 386.51106372 596.32667459 C382.51941335 596.25611044 378.52776311 596.185539 374.5361129 596.11496582 C371.53292794 596.06186909 368.52974293 596.00877487 365.52655792 595.95568085 C364.03802769 595.92936209 364.03802769 595.92936209 362.51942614 595.90251165 C330.25351753 595.33208996 297.98743426 594.77247118 265.72122465 594.21935453 C231.46282723 593.63205028 197.20460146 593.03559458 162.94654882 592.4285 C159.18385522 592.36185309 155.421161 592.2952414 151.65846634 592.22865486 C150.26913344 592.20406156 150.26913344 592.20406156 148.85173321 592.17897142 C134.01180016 591.91648791 119.17173805 591.66218105 104.33161247 591.41084703 C89.42236592 591.15812433 74.51330864 590.89592505 59.60439421 590.62430569 C50.77163526 590.46365089 41.93882223 590.3098501 33.10576856 590.16628863 C27.18541061 590.06935736 21.26526641 589.96303358 15.34520377 589.84949989 C11.98704851 589.78535079 8.62903507 589.72629952 5.27062984 589.6759465 C-7.87034978 589.47657647 -20.8788345 588.95927027 -33.95015144 587.53478718 C-35.56713487 587.35895801 -35.56713487 587.35895801 -37.21678462 587.17957674 C-77.03002512 582.44565073 -112.41983987 562.95134272 -141.41094208 535.91783905 C-142.15086395 535.2320578 -142.89078583 534.54627655 -143.65312958 533.83971405 C-174.16681576 504.52051381 -194.76658405 459.91153366 -196.50863075 417.54187775 C-196.549779 414.96783305 -196.56080366 412.39553576 -196.55913544 409.82115936 C-196.56172174 408.82795433 -196.56430805 407.8347493 -196.56697273 406.81144714 C-196.57245868 403.45625229 -196.56869696 400.1011583 -196.56328583 396.74596405 C-196.56258528 395.55403694 -196.56188473 394.36210983 -196.56116295 393.13406372 C-196.52543684 357.48416917 -195.7965744 321.84041565 -195.13133848 286.19793272 C-194.98912689 278.5606908 -194.85246788 270.92335746 -194.71726853 263.28598857 C-194.55215432 253.96189417 -194.38319884 244.63787208 -194.21314502 235.31386662 C-194.16567004 232.69749899 -194.11887881 230.08111995 -194.0722599 227.46473694 C-193.78506477 211.41749531 -193.47929118 195.37082093 -192.96538544 179.32897186 C-192.93423676 178.24122341 -192.90308809 177.15347496 -192.87099552 176.03276443 C-191.14057714 126.64748873 -167.71481046 80.99808753 -132.0979538 47.45690155 C-95.93101348 14.46176526 -48.44938397 -0.90863265 0 0 Z M-49.97344208 31.60533905 C-51.2828476 31.99725433 -51.2828476 31.99725433 -52.61870575 32.3970871 C-93.08065195 44.846067 -126.89390066 71.85479649 -147.41094208 108.91783905 C-147.76430634 109.55592499 -148.11767059 110.19401093 -148.48174286 110.8514328 C-159.77499135 131.57222468 -166.29684291 155.23409381 -166.69219208 178.87316132 C-166.71025878 179.74823302 -166.72832548 180.62330473 -166.74693966 181.52489376 C-166.80577642 184.42794517 -166.85841977 187.33107331 -166.91094208 190.2342453 C-166.95130535 192.29870494 -166.99200795 194.36315797 -167.03302765 196.42760468 C-167.14184155 201.96486035 -167.24503418 207.50220775 -167.34702682 213.03959274 C-167.43232117 217.63123869 -167.52103891 222.22281607 -167.60966206 226.81439877 C-168.02947653 248.60855318 -168.42298993 270.40299103 -168.72734833 292.19908905 C-168.73856091 293.00019545 -168.74977348 293.80130184 -168.76132584 294.62668419 C-168.86358298 301.97935052 -168.96126422 309.33204453 -169.04593563 316.68493557 C-169.19509478 329.55539643 -169.42448883 342.41104426 -169.91875458 355.2733078 C-170.37123202 367.06518947 -170.65939322 378.84609408 -170.70610809 390.64684296 C-170.71770558 392.66807258 -170.73827749 394.68926979 -170.76763153 396.71031952 C-171.27123144 431.82726992 -162.84143627 467.41659117 -141.41094208 495.91783905 C-140.78832489 496.74928436 -140.1657077 497.58072968 -139.52422333 498.4373703 C-113.15552175 532.40111371 -76.94146983 555.01144205 -34.17882538 561.46808624 C-27.43622567 562.27291561 -20.68029236 562.33887477 -13.89922333 562.4451828 C-12.2100662 562.47820341 -10.52092363 562.51197479 -8.83179474 562.54640961 C-4.12995306 562.63991896 0.57202966 562.72223242 5.27410889 562.80277634 C10.4067188 562.89263095 15.5391287 562.99286484 20.67157745 563.09142303 C33.71998383 563.33935491 46.7686866 563.56984768 59.81743693 563.7987898 C68.02107635 563.94279729 76.22468334 564.08862663 84.42829263 564.2343384 C129.47394024 565.03434462 129.47394024 565.03434462 174.51988232 565.81754017 C179.95151835 565.91108473 185.38314304 566.00528589 190.81476754 566.09949708 C195.04768753 566.17284584 199.28061408 566.24574231 203.51356316 566.31739426 C221.64473291 566.62447979 239.77347432 566.9825344 257.9020462 567.41783905 C277.88419219 567.89689502 297.86687481 568.25021429 317.85229254 568.55933404 C322.54981673 568.63242915 327.24730755 568.70761091 331.94480133 568.78263092 C339.90378468 568.90957198 347.86277996 569.03573306 355.82178497 569.16130829 C376.49168968 569.48764933 397.16149616 569.82008425 417.83124542 570.1561203 C419.35042485 570.18080431 419.35042485 570.18080431 420.90029478 570.20598698 C456.88380789 570.79117048 492.86460933 571.45964587 528.84474373 572.22669983 C533.3897122 572.32350122 537.93469181 572.41976298 542.47968292 572.5154953 C543.33415386 572.53351952 544.1886248 572.55154373 545.0689888 572.57011414 C557.71572237 572.83519947 570.3626588 573.04996682 583.01093292 573.2264328 C583.82993954 573.23787827 584.64894615 573.24932373 585.49277115 573.26111603 C593.06713813 573.36616107 600.64154395 573.46615648 608.21613789 573.55339909 C621.2787707 573.70474563 634.32711719 573.94127397 647.38202667 574.42565155 C659.70790339 574.88134469 672.02340557 575.16638817 684.35785675 575.21300507 C686.48292391 575.22462998 688.60795959 575.24524301 690.73285675 575.2745285 C709.46052676 575.52951085 727.68649407 573.74785984 745.58905792 567.91783905 C746.64480011 567.5826828 747.7005423 567.24752655 748.78827667 566.90221405 C758.18209932 563.74639457 766.86050589 559.5744479 775.58905792 554.91783905 C776.64093292 554.36225311 777.69280792 553.80666718 778.77655792 553.2342453 C794.05490221 544.76207832 808.64076183 532.50227585 819.58905792 518.91783905 C820.35862823 517.9742453 821.12819855 517.03065155 821.92108917 516.05846405 C847.94968988 483.56064836 856.63092992 445.70456599 857.15155792 404.72252655 C857.18726265 402.44215326 857.22383425 400.1617934 857.26120758 397.88144684 C857.33917338 393.03602173 857.41206327 388.19055949 857.48072052 383.34499359 C857.64374823 371.85864632 857.83158765 360.37269326 858.01844406 348.88671303 C858.06038952 346.30110006 858.10200155 343.71548166 858.14328384 341.12985802 C858.50349702 318.5922036 859.00386201 296.06029031 859.57968903 273.52724457 C860.46543225 239.61912171 860.46543225 239.61912171 860.88660431 205.70308685 C860.89622699 203.87055536 860.91038729 202.03803913 860.93018341 200.20558929 C861.08483117 184.41751138 859.51184532 168.59923318 854.96405792 153.41783905 C854.71172394 152.56165985 854.45938995 151.70548065 854.19940948 150.82335663 C849.33322997 135.01984557 841.95951635 120.50333115 832.58905792 106.91783905 C831.85558136 105.84662811 831.1221048 104.77541718 830.36640167 103.6717453 C812.28240825 78.82564113 788.35159275 62.21132843 760.58905792 49.91783905 C759.72925323 49.52725311 758.86944855 49.13666718 757.98358917 48.7342453 C733.14680211 38.04236209 705.56568907 38.38904128 679.0609839 38.07354355 C674.36085518 38.01454097 669.66097777 37.93960905 664.96105194 37.86644745 C656.96160763 37.74389961 648.96208018 37.63051196 640.96240997 37.52376556 C628.43719296 37.35644356 615.91229323 37.17028883 603.38739777 36.98058319 C599.21778187 36.91758723 595.04816484 36.85466715 590.87854767 36.79175568 C589.85280341 36.77625866 588.82705914 36.76076165 587.77023172 36.74479502 C580.56926415 36.63619012 573.36826285 36.53004578 566.16724396 36.42490387 C538.27078673 36.01656019 510.37771924 35.52545039 482.48485184 34.91569138 C474.08740662 34.73278158 465.6898254 34.55627976 457.29218292 34.3826828 C456.36946531 34.36360304 455.4467477 34.34452328 454.49606895 34.32486534 C426.4872883 33.75017021 398.47540614 33.34430552 370.46405792 32.91783905 C369.10183459 32.8970885 367.73961129 32.87633655 366.377388 32.85558319 C364.34292812 32.82458953 362.30846823 32.79359641 360.27400827 32.76260722 C352.83214592 32.64924169 345.3902871 32.53564616 337.94843292 32.4217453 C337.27861956 32.41149968 336.60880619 32.40125405 335.91869545 32.39069796 C306.3839139 31.93869415 276.85002822 31.44060806 247.31639099 30.91881561 C243.78682423 30.85662126 240.25724824 30.79498086 236.72766876 30.73351288 C216.10867861 30.37386539 195.49067297 30.00607461 174.87497711 29.48816681 C147.60073757 28.80314235 120.32207833 28.38043072 93.04281962 27.95504731 C88.1247632 27.87809758 83.20675572 27.7984295 78.28876495 27.7173996 C39.38526185 27.06655026 39.38526185 27.06655026 0.47809219 26.7458744 C-1.32230707 26.73832095 -3.1226968 26.72758194 -4.92305374 26.71310997 C-20.06619249 26.59971175 -35.4008395 27.09993743 -49.97344208 31.60533905 Z " fill="#D1DAEE" transform="translate(1045.4109420776367,1022.082160949707)"/>
<path d="M0 0 C24.38655011 19.17979446 42.19805417 45.61172593 47.5625 76.5 C51.63514634 110.61769981 45.75138924 144.20724353 24.25 171.8125 C4.3719541 196.3411536 -24.08441943 214.68432177 -55.94677734 218.2890625 C-92.40205381 221.37643349 -124.33994333 212.44705634 -152.4609375 188.9765625 C-175.23579789 169.30387706 -190.51775039 139.48237501 -193.4375 109.5 C-194.27383382 96.15986948 -193.61761052 83.48200961 -190.4375 70.5 C-190.17066406 69.27410156 -189.90382813 68.04820313 -189.62890625 66.78515625 C-182.60092323 37.01774371 -162.0797363 10.7566799 -136.4375 -5.5 C-131.26488803 -8.51486536 -125.89575551 -11.05199347 -120.4375 -13.5 C-119.44105469 -13.97050781 -118.44460938 -14.44101563 -117.41796875 -14.92578125 C-79.28650073 -31.41368509 -33.12604273 -24.314189 0 0 Z " fill="#FEFEFE" transform="translate(1221.4375,1185.5)"/>
<path d="M0 0 C24.25159641 19.06553191 42.35116795 45.61408652 47.5 76.4375 C51.52889492 110.57797574 45.70922621 144.11863325 24.1875 171.75 C4.3094541 196.2786536 -24.14691943 214.62182177 -56.00927734 218.2265625 C-92.46455381 221.31393349 -124.40244333 212.38455634 -152.5234375 188.9140625 C-175.29829789 169.24137706 -190.58025039 139.41987501 -193.5 109.4375 C-194.33633382 96.09736948 -193.68011052 83.41950961 -190.5 70.4375 C-190.23316406 69.21160156 -189.96632813 67.98570313 -189.69140625 66.72265625 C-182.66342323 36.95524371 -162.1422363 10.6941799 -136.5 -5.5625 C-131.32738803 -8.57736536 -125.95825551 -11.11449347 -120.5 -13.5625 C-119.50355469 -14.03300781 -118.50710938 -14.50351563 -117.48046875 -14.98828125 C-79.32956656 -31.48458836 -33.11169868 -24.37894298 0 0 Z " fill="#FEFEFE" transform="translate(1694.5,1185.5625)"/>
<path d="M0 0 C-0.15855469 0.51014648 -0.31710937 1.02029297 -0.48046875 1.54589844 C-2.93624485 9.58144206 -5.13860984 17.68384711 -7.33398438 25.79345703 C-7.9950654 28.23179915 -8.66152192 30.66863138 -9.328125 33.10546875 C-11.84316873 42.35305854 -14.10605467 51.60158152 -16 61 C-16.21398437 62.02319336 -16.42796875 63.04638672 -16.6484375 64.10058594 C-28.6285436 121.65316355 -27.97476357 180.68323694 -16.72900391 238.25927734 C-16.09558558 241.50952371 -15.48860264 244.7633561 -14.88671875 248.01953125 C-11.26092068 266.75697742 -5.2817169 285.25665328 1.15161133 303.21459961 C2 306 2 306 2 310 C-26.68751947 316.95322499 -53.02191339 314.47029284 -78.91015625 299.91015625 C-114.79515083 277.72588021 -135.17645143 241.39568478 -144.99731445 201.39355469 C-148.43777013 186.66064524 -149.37849687 172.36949142 -149.3125 157.3125 C-149.31034485 156.4274881 -149.3081897 155.5424762 -149.30596924 154.63064575 C-149.25604622 141.86175055 -148.92401568 129.48157994 -146 117 C-145.80132324 116.10684082 -145.60264648 115.21368164 -145.39794922 114.29345703 C-136.7368183 75.98336109 -117.0593086 37.36660631 -83.25 15.375 C-57.81193567 -0.60775132 -29.58865113 -7.15854463 0 0 Z " fill="#0C1C2F" transform="translate(708,1167)"/>
<path d="M0 0 C28.03398097 27.15350631 45.83442084 69.9453524 46.80908203 108.85888672 C46.82863459 110.38063538 46.84238845 111.90246692 46.85107422 113.42431641 C46.85808853 114.24706055 46.86510284 115.06980469 46.87232971 115.91748047 C46.88975449 118.56044028 46.89618258 121.20317625 46.89794922 123.84619141 C46.89862396 124.74768921 46.89929871 125.64918701 46.8999939 126.57800293 C46.88460013 139.49438024 46.53299671 151.95707094 43.64794922 164.59619141 C43.48166016 165.38687012 43.31537109 166.17754883 43.14404297 166.9921875 C34.99160117 205.49737788 14.58035262 243.8921301 -18.71923828 266.27978516 C-43.25091122 282.17699839 -70.54892098 288.11511278 -99.35205078 282.59619141 C-100.34205078 282.26619141 -101.33205078 281.93619141 -102.35205078 281.59619141 C-100.89133695 276.02602987 -99.35709268 270.50016562 -97.55517578 265.02978516 C-92.26271903 248.87279811 -88.62001716 232.65834347 -85.41003418 215.9868927 C-84.75313268 212.58287252 -84.0476009 209.20045064 -83.25048828 205.82666016 C-81.31396709 197.29568986 -80.66246974 188.47871225 -79.70898438 179.79638672 C-79.39768557 177.00534378 -79.05948096 174.21924278 -78.71533203 171.43212891 C-71.68608934 109.76295883 -80.6879851 44.68971579 -100.93457031 -13.74267578 C-101.16934586 -14.43013382 -101.4041214 -15.11759186 -101.64601135 -15.82588196 C-102.28211387 -17.68187576 -102.9319534 -19.53314547 -103.58276367 -21.3840332 C-104.32798989 -24.30935946 -104.441897 -25.64289315 -103.35205078 -28.40380859 C-64.63246398 -38.33350908 -28.86989641 -26.95356851 0 0 Z " fill="#0C1C2F" transform="translate(2175.35205078125,1196.40380859375)"/>
<path d="M0 0 C11.08570897 8.77709374 18.0912445 22.26920313 20.40625 36.0546875 C22.32565421 52.56916529 18.1168732 68.41603219 7.98828125 81.63671875 C-1.93031583 93.41390266 -14.75479508 101.25977938 -30.19921875 103.44921875 C-45.20606874 104.67250962 -59.84884571 101.6830317 -71.92578125 92.33984375 C-74.45188415 90.12664182 -76.84124202 87.84000211 -79.19921875 85.44921875 C-79.84761719 84.81113281 -80.49601562 84.17304688 -81.1640625 83.515625 C-91.16363058 72.99091549 -95.15784368 59.22741396 -95.57421875 44.94921875 C-95.07604271 27.86593206 -89.32484052 14.40345364 -77.19921875 2.44921875 C-76.63460938 1.87429687 -76.07 1.299375 -75.48828125 0.70703125 C-54.34846927 -19.19532832 -21.99170658 -15.50747338 0 0 Z " fill="#DC5E46" transform="translate(1179.19921875,2068.55078125)"/>
<path d="M0 0 C10.52373201 8.99532312 17.23643459 20.30420275 20.14453125 33.89453125 C21.57954904 53.02084427 19.58284045 69.49136384 6.8203125 84.65625 C-3.83706654 95.84900758 -17.37642385 102.7163838 -32.85546875 103.89453125 C-50.91659685 104.05740715 -65.26233036 98.71435832 -78.53125 86.3203125 C-90.26723269 74.07149695 -95.38554197 59.86074964 -95.27685547 43.09667969 C-94.7797754 26.45931118 -87.74516529 13.34101382 -75.85546875 1.89453125 C-54.0838058 -16.48089528 -22.83392067 -16.83650238 0 0 Z " fill="#DC5E46" transform="translate(1419.85546875,2068.10546875)"/>
<path d="M0 0 C12.8423198 11.11465346 19.89394192 25.04401399 21.3984375 42.046875 C21.85496662 58.38267782 16.9109345 73.00517023 6.375 85.5078125 C-5.33344446 97.4993627 -20.28201235 103.56767716 -36.94921875 104.19921875 C-52.79900408 103.54426894 -67.06137653 97.63234704 -78.41796875 86.54296875 C-91.16951316 72.50012871 -94.97129563 57.74747487 -94.3046875 39.2421875 C-93.3592135 23.88949058 -86.01735305 11.25371073 -74.88671875 0.82421875 C-53.03643446 -16.10570523 -22.166686 -16.70750217 0 0 Z " fill="#DC5E46" transform="translate(1660.88671875,2068.17578125)"/>
<path d="M0 0 C10.92861531 10.0859269 16.7039582 23.48427325 17.40625 38.21484375 C17.26222387 53.06753849 11.86626613 65.84204655 1.46484375 76.37109375 C-3.41017378 80.8778197 -9.72442748 86.4375 -16.625 86.4375 C-16.625 104.5875 -16.625 122.7375 -16.625 141.4375 C-27.845 141.4375 -39.065 141.4375 -50.625 141.4375 C-50.625 123.2875 -50.625 105.1375 -50.625 86.4375 C-52.275 86.1075 -53.925 85.7775 -55.625 85.4375 C-68.289188 79.56668437 -76.4988645 69.7447483 -81.62109375 56.94921875 C-86.20561413 43.89759376 -85.79965625 30.26940071 -80.37109375 17.484375 C-73.41383046 3.91107659 -63.11185846 -4.32994067 -49.01171875 -9.8359375 C-31.88695341 -15.04904119 -13.97795294 -10.66823075 0 0 Z " fill="#0C1C2F" transform="translate(1443.625,620.5625)"/>
<path d="M0 0 C2.56470394 -0.38311005 2.56470394 -0.38311005 5.87693787 -0.39440918 C7.12906067 -0.40575897 8.38118347 -0.41710876 9.67124939 -0.42880249 C11.06655947 -0.42615891 12.46186897 -0.42318764 13.85717773 -0.41992188 C15.32057343 -0.4272579 16.78396333 -0.43584275 18.24734497 -0.44558716 C22.2287569 -0.46786161 26.20996225 -0.4707309 30.19142795 -0.46883965 C33.51166289 -0.46872021 36.83185362 -0.47727315 40.1520763 -0.48561716 C47.98333132 -0.50487267 55.81447974 -0.5077273 63.64575195 -0.50097656 C71.73249483 -0.49433403 79.81878178 -0.51720342 87.90543216 -0.55429029 C94.8413699 -0.58494899 101.77716069 -0.59635151 108.71316487 -0.59245348 C112.85883206 -0.59038194 117.00414461 -0.59592683 121.14974785 -0.62034607 C125.04789483 -0.64254785 128.94529879 -0.64079126 132.84344864 -0.62041855 C134.27575948 -0.6169967 135.70811969 -0.62214811 137.14036369 -0.63640213 C139.09219117 -0.65448977 141.04424506 -0.6388932 142.99607849 -0.62145996 C144.08949271 -0.62217247 145.18290693 -0.62288498 146.30945492 -0.62361908 C149 0 149 0 150.84594822 2.41384125 C153.63821765 8.67114456 152.16100457 14.21841613 149.9375 20.5 C147.42259355 26.5385776 144.40908781 31.19843657 140 36 C139.195625 36.89589844 138.39125 37.79179688 137.5625 38.71484375 C123.13753867 53.99943213 102.46080157 63.59264395 81.3515625 64.43359375 C79.10949241 64.45657587 76.86709859 64.45751009 74.625 64.4375 C73.44760254 64.43137695 72.27020508 64.42525391 71.05712891 64.41894531 C62.13864801 64.25909387 54.38050533 63.22069952 46 60 C45.195625 59.69964844 44.39125 59.39929687 43.5625 59.08984375 C41.30961042 58.1605268 39.16916937 57.11049627 37 56 C36.01773437 55.53078125 35.03546875 55.0615625 34.0234375 54.578125 C18.94031544 47.01856502 4.40525482 35.03572818 -1.41796875 18.65625 C-2.54798719 13.49911888 -2.63121851 8.23324185 -2 3 C-1.34 2.01 -0.68 1.02 0 0 Z " fill="#FEFEFE" transform="translate(1305,1454)"/>
</svg>
