<?xml version="1.0" encoding="UTF-8"?>
<svg width="24px" height="24px" viewBox="0 0 24 24" version="1.1" xmlns="http://www.w3.org/2000/svg">
  <g stroke="none" stroke-width="1" fill="none" fill-rule="evenodd">
    <g fill="#FFFFFF">
      <path d="M12,2 C17.5228,2 22,6.47715 22,12 C22,17.5228 17.5228,22 12,22 C6.47715,22 2,17.5228 2,12 C2,6.47715 6.47715,2 12,2 Z M12,4 C7.58172,4 4,7.58172 4,12 C4,16.4183 7.58172,20 12,20 C16.4183,20 20,16.4183 20,12 C20,7.58172 16.4183,4 12,4 Z" fill-rule="nonzero"/>
      <path d="M12,6 C13.1046,6 14,6.89543 14,8 C14,9.10457 13.1046,10 12,10 C10.8954,10 10,9.10457 10,8 C10,6.89543 10.8954,6 12,6 Z"/>
      <path d="M12,14 C13.1046,14 14,14.8954 14,16 C14,17.1046 13.1046,18 12,18 C10.8954,18 10,17.1046 10,16 C10,14.8954 10.8954,14 12,14 Z"/>
      <path d="M7,10 C8.10457,10 9,10.8954 9,12 C9,13.1046 8.10457,14 7,14 C5.89543,14 5,13.1046 5,12 C5,10.8954 5.89543,10 7,10 Z"/>
      <path d="M17,10 C18.1046,10 19,10.8954 19,12 C19,13.1046 18.1046,14 17,14 C15.8954,14 15,13.1046 15,12 C15,10.8954 15.8954,10 17,10 Z"/>
      <path d="M8.5,8.5 L15.5,15.5" stroke="#FFFFFF" stroke-width="1.5"/>
      <path d="M15.5,8.5 L8.5,15.5" stroke="#FFFFFF" stroke-width="1.5"/>
    </g>
  </g>
</svg> 