<?xml version="1.0" encoding="UTF-8"?>
<svg width="24px" height="24px" viewBox="0 0 24 24" version="1.1" xmlns="http://www.w3.org/2000/svg">
  <g stroke="none" stroke-width="1" fill="none" fill-rule="evenodd">
    <g fill="#FFFFFF">
      <path d="M21,3 L21,21 L3,21 L3,3 L21,3 Z M19,5 L5,5 L5,19 L19,19 L19,5 Z" fill-rule="nonzero"/>
      <path d="M9,8 L15,8 L15,10 L9,10 L9,8 Z M8,12 L16,12 L16,14 L8,14 L8,12 Z M10,16 L14,16 L14,18 L10,18 L10,16 Z"/>
      <circle cx="7" cy="9" r="1"/>
      <circle cx="17" cy="13" r="1"/>
      <circle cx="8" cy="17" r="1"/>
    </g>
  </g>
</svg> 