<svg xmlns="http://www.w3.org/2000/svg" class="ionicon" viewBox="0 0 512 512">
  <path d="M393.87 190.4l-33.46-33.46a13.77 13.77 0 00-19.43 0l-65.43 65.43-2.69-2.69a15.89 15.89 0 00-22.47 0L181.8 288.26a16 16 0 000 22.47l80 80a16 16 0 0022.47 0l68.57-68.57a15.89 15.89 0 000-22.47l-2.69-2.69 65.43-65.43a13.77 13.77 0 000-19.43z" fill="none" stroke="currentColor" stroke-linecap="round" stroke-linejoin="round" stroke-width="32"/>
  <path d="M400 175.09V142c0-29.6-20.4-55.39-50-61.59-29.6-6.2-59.4 8.9-70 35.79-10.6-26.89-40.4-41.99-70-35.79-29.6 6.2-50 32-50 61.59v33.09m55.66-21.91a8 8 0 00-12.66 8.66c1.93 2.77 6.92 7.3 15 10.39a38.5 38.5 0 0030 0c8.08-3.09 13.07-7.62 15-10.39a8 8 0 00-12.66-8.66c-.87 1.34-3.3 3.13-7.49 4.67a22.89 22.89 0 01-17.7 0c-4.19-1.54-6.62-3.33-7.49-4.67z" fill="none" stroke="currentColor" stroke-linecap="round" stroke-linejoin="round" stroke-width="32"/>
</svg> 