<svg xmlns="http://www.w3.org/2000/svg" class="ionicon" viewBox="0 0 512 512">
  <path d="M402 168c-2.93 40.67-33.1 72-66 72s-63.12-31.32-66-72c-3-42.31 26.37-72 66-72s69 30.46 66 72z" fill="none" stroke="currentColor" stroke-linecap="round" stroke-linejoin="round" stroke-width="32"/>
  <path d="M336 304c-65.17 0-108.62 37.16-108.88 102.87-.02 4.43 1.04 8.8 3.08 12.82 2.05 4.02 5.07 7.5 8.81 10.18 3.74 2.69 8.09 4.48 12.71 5.23 4.62.75 9.38.41 13.83-.98 4.45-1.38 8.48-3.69 11.8-6.73 3.32-3.04 5.85-6.74 7.39-10.82 1.54-4.08 2.06-8.43 1.53-12.71-.53-4.29-2.01-8.39-4.31-11.97-2.3-3.58-5.35-6.53-8.95-8.6-.3-.01 15.99-.84 18.99-.84 35.58 0 57.97 9.37 77.7 26.44a91.04 91.04 0 0111.9 13.3c8.03 11.26 9.97 18.77 9.97 18.77" fill="none" stroke="currentColor" stroke-linecap="round" stroke-miterlimit="10" stroke-width="32"/>
  <path d="M200 168c-2.93 40.67-33.1 72-66 72s-63.12-31.32-66-72c-3-42.31 26.37-72 66-72s69 30.46 66 72z" fill="none" stroke="currentColor" stroke-linecap="round" stroke-linejoin="round" stroke-width="32"/>
  <path d="M112 304c-44.18 0-85.42 20.8-95.7 63.9-2 8.9-.44 17.92 4.66 25.5 5.1 7.58 13 12.6 22.4 12.6h138c9.4 0 17.3-5.02 22.4-12.6 5.1-7.58 6.66-16.6 4.66-25.5-10.28-43.1-51.52-63.9-95.7-63.9z" fill="none" stroke="currentColor" stroke-miterlimit="10" stroke-width="32"/>
</svg> 