<svg height="852" viewBox="-20.21 56.72 333.89 177.33" width="2500" xmlns="http://www.w3.org/2000/svg">
  <!-- AI infinity loop background -->
  <g fill="#1a1a2e">
    <path d="m93.09 176.17 20.91 1.54v17.86s-39.07 38.48-96-7.08h19.4l2.15-17.55s22.14 22.47 53.54 5.23z"/>
    <path d="m22.28 93.66s-42.49 39.56-7.7 90.21l19.42 1.85 1.85-18.78s-17.85-29.25 5.21-52.34l-20.68-1.6z"/>
    <path d="m26.9 90.89s53-34.17 93.29 7.08l-17.86-1.23-1.85 20s-20.32-24.62-54.18-5.53l-20.63-.92z"/>
    <path d="m105.1 121.68 1.23-20.63 18.78 1.85 56.65 63.11h-19.39l-1.85 17.55z"/>
  </g>
  <!-- AI accent color -->
  <g fill="#00ff88">
    <path d="m98.33 172.79 71.73-79.13 19.09 1.85-1.23 19.4-70.5 78.5.3-20.32z"/>
    <path d="m172.83 90.81 19.86 1.62-1.38 18.94s29.32-18.71 50.8 1.15l21 .92 1.89-18.44s-32.82-37-92.17-4.19z"/>
    <path d="m245.11 115.52 21 1.23 1.62-18.55s45.95 51.19-3.7 95.21l-20.31-1.41 1.85-21s27.48-30.77-.46-55.48z"/>
    <path d="m186.69 170.94-21.21-1.85-1.19 18.71s37.64 43.41 94.44 8.77l-19.4-1.57 1.85-20.09s-24.71 19.81-54.49-3.97z"/>
  </g>
  
  <!-- AI Text with neural network styling -->
  <g fill="#1a1a2e">
    <!-- A -->
    <path d="m50 140h8l12 30h-6l-2.5-6.5h-15l-2.5 6.5h-6zm4 18.5h9l-4.5-11.7z"/>
    
    <!-- I -->
    <path d="m80 140h6v30h-6z"/>
    <path d="m78 140h10v4h-10z"/>
    <path d="m78 166h10v4h-10z"/>
  </g>
  
  <!-- Neural network nodes -->
  <g fill="#00ff88">
    <circle cx="110" cy="145" r="3"/>
    <circle cx="125" cy="150" r="2.5"/>
    <circle cx="140" cy="155" r="3"/>
    <circle cx="110" cy="165" r="2.5"/>
    <circle cx="125" cy="160" r="3"/>
    <circle cx="140" cy="165" r="2.5"/>
  </g>
  
  <!-- Neural network connections -->
  <g stroke="#00ff88" stroke-width="1.5" fill="none">
    <line x1="110" y1="145" x2="125" y2="150"/>
    <line x1="110" y1="145" x2="125" y2="160"/>
    <line x1="125" y1="150" x2="140" y2="155"/>
    <line x1="125" y1="150" x2="140" y2="165"/>
    <line x1="125" y1="160" x2="140" y2="155"/>
    <line x1="125" y1="160" x2="140" y2="165"/>
    <line x1="110" y1="165" x2="125" y2="150"/>
    <line x1="110" y1="165" x2="125" y2="160"/>
  </g>
  
  <!-- Brain/AI symbol -->
  <g fill="#00ff88" stroke="#1a1a2e" stroke-width="1">
    <path d="M160 145 Q170 140, 180 145 Q185 150, 180 155 Q175 160, 165 158 Q155 155, 160 145 Z"/>
    <path d="M165 148 Q170 146, 175 148 Q177 150, 175 152 Q172 154, 168 153 Q163 151, 165 148 Z"/>
  </g>
</svg>
