<svg xmlns="http://www.w3.org/2000/svg" viewBox="0 0 100 100" width="100" height="100">
  <!-- Robot head -->
  <rect x="25" y="30" width="50" height="40" rx="8" fill="#2563eb" stroke="#1e40af" stroke-width="2"/>
  
  <!-- Eyes -->
  <circle cx="35" cy="45" r="4" fill="#60a5fa"/>
  <circle cx="65" cy="45" r="4" fill="#60a5fa"/>
  <circle cx="35" cy="45" r="2" fill="#ffffff"/>
  <circle cx="65" cy="45" r="2" fill="#ffffff"/>
  
  <!-- Mouth -->
  <rect x="45" y="55" width="10" height="4" rx="2" fill="#1e40af"/>
  
  <!-- Antenna -->
  <line x1="50" y1="30" x2="50" y2="20" stroke="#1e40af" stroke-width="3"/>
  <circle cx="50" cy="18" r="3" fill="#ef4444"/>
  
  <!-- Body -->
  <rect x="30" y="70" width="40" height="25" rx="5" fill="#3b82f6" stroke="#1e40af" stroke-width="2"/>
  
  <!-- Control panel -->
  <rect x="40" y="78" width="20" height="10" rx="2" fill="#1e40af"/>
  <circle cx="45" cy="83" r="1.5" fill="#10b981"/>
  <circle cx="55" cy="83" r="1.5" fill="#f59e0b"/>
  
  <!-- Arms -->
  <rect x="15" y="75" width="12" height="8" rx="4" fill="#6366f1"/>
  <rect x="73" y="75" width="12" height="8" rx="4" fill="#6366f1"/>
  
  <!-- AI Neural network pattern overlay -->
  <g opacity="0.3">
    <line x1="30" y1="40" x2="40" y2="50" stroke="#60a5fa" stroke-width="1"/>
    <line x1="40" y1="40" x2="50" y2="50" stroke="#60a5fa" stroke-width="1"/>
    <line x1="50" y1="40" x2="60" y2="50" stroke="#60a5fa" stroke-width="1"/>
    <line x1="60" y1="40" x2="70" y2="50" stroke="#60a5fa" stroke-width="1"/>
    <circle cx="30" cy="40" r="1" fill="#60a5fa"/>
    <circle cx="40" cy="40" r="1" fill="#60a5fa"/>
    <circle cx="50" cy="40" r="1" fill="#60a5fa"/>
    <circle cx="60" cy="40" r="1" fill="#60a5fa"/>
    <circle cx="70" cy="40" r="1" fill="#60a5fa"/>
    <circle cx="40" cy="50" r="1" fill="#60a5fa"/>
    <circle cx="50" cy="50" r="1" fill="#60a5fa"/>
    <circle cx="60" cy="50" r="1" fill="#60a5fa"/>
  </g>
</svg>
